<?xml version="1.0" encoding="iso-8859-1"?>
<!-- Generator: Adobe Illustrator 19.0.0, SVG Export Plug-In . SVG Version: 6.00 Build 0)  -->
<svg version="1.1" id="Capa_1" xmlns="http://www.w3.org/2000/svg" xmlns:xlink="http://www.w3.org/1999/xlink" x="0px" y="0px"
	 viewBox="0 0 512 512" style="enable-background:new 0 0 512 512;" xml:space="preserve">
<g>
	<g>
		<g>
			<path d="M158.389,167.898v-3.349c0-4.143-3.357-7.5-7.5-7.5s-7.5,3.357-7.5,7.5v3.349c0,4.143,3.357,7.5,7.5,7.5
				C155.031,175.398,158.389,172.041,158.389,167.898z"/>
			<path d="M124.724,135.197v-3.349c0-4.143-3.357-7.5-7.5-7.5s-7.5,3.357-7.5,7.5v3.349c0,4.143,3.357,7.5,7.5,7.5
				C121.366,142.697,124.724,139.339,124.724,135.197z"/>
			<path d="M512,239.031v-8.344c0-16.206-13.185-29.391-29.391-29.391h-6.629c5.196-8.361,6.243-18.694,2.749-27.96
				c-15.218-40.361-42.014-74.665-77.49-99.202c-35.476-24.538-77.027-37.508-120.163-37.508h-50.152
				c-46.212,0-91.864,15.489-128.546,43.614c-3.287,2.521-3.909,7.229-1.389,10.516c2.521,3.286,7.227,3.908,10.516,1.389
				c34.078-26.129,76.488-40.519,119.419-40.519h50.152c40.072,0,78.674,12.049,111.631,34.844
				c32.957,22.796,57.85,54.663,71.987,92.159c1.97,5.223,1.277,10.852-1.897,15.443c-3.176,4.591-8.198,7.224-13.78,7.224H62.983
				c-5.582,0-10.605-2.633-13.78-7.225c-3.176-4.591-3.867-10.22-1.897-15.443c9.074-24.066,22.548-45.786,40.048-64.556
				c2.825-3.029,2.659-7.775-0.371-10.6c-3.03-2.825-7.776-2.657-10.6,0.371c-18.84,20.207-33.346,43.588-43.112,69.492
				c-3.494,9.265-2.447,19.599,2.749,27.96h-6.629C13.185,201.297,0,214.481,0,230.688v8.344c0,8.689,3.793,16.505,9.806,21.891
				C3.793,266.308,0,274.124,0,282.814v8.344c0,9.003,4.073,17.07,10.469,22.465C4.047,319.394,0,327.757,0,337.051v16.015
				c0,15.418,11.137,28.276,25.787,30.974c-3.39,5.106-5.372,11.225-5.372,17.801v41.26c0,17.795,14.478,32.272,32.272,32.272
				h406.625c17.795,0,32.272-14.477,32.272-32.272v-41.26c0-6.575-1.981-12.694-5.372-17.801
				c14.65-2.698,25.787-15.555,25.787-30.974v-16.015c0-9.293-4.047-17.657-10.469-23.428c6.396-5.396,10.469-13.462,10.469-22.465
				v-8.344c0-8.689-3.793-16.506-9.806-21.892C508.207,255.537,512,247.721,512,239.031z M476.585,443.1
				c0,9.523-7.748,17.272-17.272,17.272H52.688c-9.524,0-17.272-7.748-17.272-17.272v-41.26c0-9.523,7.748-17.271,17.272-17.271
				h406.625c9.524,0,17.272,7.748,17.272,17.271V443.1z M480.497,369.568H31.503c-9.1,0-16.503-7.403-16.503-16.503v-16.015
				c0-9.1,7.403-16.503,16.503-16.503h43.379c4.143,0,7.5-3.357,7.5-7.5c0-4.142-3.357-7.5-7.5-7.5H29.391
				c-7.934,0-14.391-6.456-14.391-14.391v-8.344c0-7.936,6.456-14.392,14.391-14.392h228.874l20.786,37.126H109.542
				c-4.143,0-7.5,3.358-7.5,7.5c0,4.143,3.357,7.5,7.5,7.5h177.906l12.847,22.947c5.629,10.055,15.869,16.057,27.393,16.057
				c11.522-0.001,21.763-6.003,27.391-16.057l12.847-22.947h112.571c9.1,0,16.503,7.403,16.503,16.503v16.016h0
				C497,362.165,489.597,369.568,480.497,369.568z M275.456,268.422H379.92l-22.97,41.027c-0.007,0.013-0.014,0.025-0.021,0.038
				l-14.937,26.68c-2.939,5.25-8.286,8.385-14.303,8.385c-6.018,0-11.365-3.135-14.305-8.385l-14.937-26.68
				c-0.007-0.013-0.014-0.025-0.021-0.038L275.456,268.422z M497.001,239.031L497.001,239.031
				c-0.001,7.935-6.457,14.391-14.392,14.391H456.12c-4.143,0-7.5,3.357-7.5,7.5c0,4.142,3.357,7.5,7.5,7.5h26.489
				c7.935,0,14.391,6.456,14.391,14.392v8.344c0,7.935-6.456,14.391-14.391,14.391H376.325l20.785-37.126h27.411
				c4.143,0,7.5-3.358,7.5-7.5c0-4.143-3.357-7.5-7.5-7.5H392.83c-0.013,0-0.025,0-0.038,0H262.584c-0.013,0-0.025,0-0.038,0H29.391
				c-7.934,0-14.391-6.456-14.391-14.391v-8.344c0-7.935,6.456-14.391,14.391-14.391H482.61c7.935,0,14.391,6.456,14.391,14.391
				V239.031z"/>
			<path d="M183.766,128.484v-13.235c0-4.143-3.357-7.5-7.5-7.5s-7.5,3.357-7.5,7.5v13.235c0,4.143,3.357,7.5,7.5,7.5
				C180.408,135.984,183.766,132.627,183.766,128.484z"/>
			<path d="M343.234,128.484v-13.235c0-4.143-3.357-7.5-7.5-7.5s-7.5,3.357-7.5,7.5v13.235c0,4.143,3.357,7.5,7.5,7.5
				S343.234,132.627,343.234,128.484z"/>
			<path d="M368.611,167.898v-3.349c0-4.143-3.357-7.5-7.5-7.5c-4.142,0-7.5,3.357-7.5,7.5v3.349c0,4.143,3.358,7.5,7.5,7.5
				C365.254,175.398,368.611,172.041,368.611,167.898z"/>
			<path d="M402.276,135.197v-3.349c0-4.143-3.357-7.5-7.5-7.5s-7.5,3.357-7.5,7.5v3.349c0,4.143,3.357,7.5,7.5,7.5
				S402.276,139.339,402.276,135.197z"/>
			<path d="M248.5,182.447v3.349c0,4.143,3.357,7.5,7.5,7.5s7.5-3.357,7.5-7.5v-3.349c0-4.143-3.357-7.5-7.5-7.5
				S248.5,178.304,248.5,182.447z"/>
			<path d="M282.676,133.998c2.722-3.123,2.395-7.86-0.727-10.582c-3.123-2.721-7.86-2.396-10.582,0.727
				c-3.879,4.451-9.479,7.004-15.367,7.004s-11.488-2.553-15.367-7.004c-2.723-3.122-7.46-3.447-10.582-0.727
				c-3.122,2.722-3.448,7.459-0.727,10.582c6.729,7.721,16.451,12.149,26.676,12.149
				C266.225,146.148,275.947,141.719,282.676,133.998z"/>
			<path d="M219.464,82.336v-3.348c0-4.143-3.357-7.5-7.5-7.5s-7.5,3.357-7.5,7.5v3.348c0,4.143,3.357,7.5,7.5,7.5
				C216.106,89.836,219.464,86.479,219.464,82.336z"/>
			<path d="M307.536,82.336v-3.348c0-4.143-3.357-7.5-7.5-7.5s-7.5,3.357-7.5,7.5v3.348c0,4.143,3.357,7.5,7.5,7.5
				S307.536,86.479,307.536,82.336z"/>
		</g>
	</g>
</g>
<g>
</g>
<g>
</g>
<g>
</g>
<g>
</g>
<g>
</g>
<g>
</g>
<g>
</g>
<g>
</g>
<g>
</g>
<g>
</g>
<g>
</g>
<g>
</g>
<g>
</g>
<g>
</g>
<g>
</g>
</svg>
